<?xml version="1.0" encoding="UTF-8"?>
<svg xmlns="http://www.w3.org/2000/svg" xmlns:xlink="http://www.w3.org/1999/xlink" viewBox="0 0 100 100" width="100px" height="100px">
<g id="surface44303502">
<path style=" stroke:none;fill-rule:nonzero;fill:rgb(80.000001%,80.000001%,80.000001%);fill-opacity:1;" d="M 28 7.980469 C 16.976562 7.980469 8 16.957031 8 27.980469 L 8 71.980469 C 8 83.003906 16.976562 91.980469 28 91.980469 L 72 91.980469 C 83.023438 91.980469 92 83.003906 92 71.980469 L 92 27.980469 C 92 16.957031 83.023438 7.980469 72 7.980469 Z M 28 11.980469 L 72 11.980469 C 80.863281 11.980469 88 19.117188 88 27.980469 L 88 71.980469 C 88 80.84375 80.863281 87.980469 72 87.980469 L 28 87.980469 C 19.136719 87.980469 12 80.84375 12 71.980469 L 12 27.980469 C 12 19.117188 19.136719 11.980469 28 11.980469 Z M 36.097656 22.070312 C 32.007812 21.894531 28.902344 23.449219 26.949219 25.316406 C 25.972656 26.25 25.269531 27.25 24.785156 28.183594 C 24.300781 29.117188 23.996094 29.886719 23.996094 30.886719 C 23.996094 30.796875 23.972656 31.265625 23.960938 31.808594 C 23.949219 32.351562 23.949219 33.085938 24 33.96875 C 24.101562 35.738281 24.398438 38.132812 25.195312 40.96875 C 26.785156 46.644531 30.367188 54.085938 38.140625 61.859375 C 45.914062 69.632812 53.355469 73.214844 59.03125 74.804688 C 61.867188 75.601562 64.261719 75.898438 66.03125 76 C 66.914062 76.050781 67.644531 76.050781 68.1875 76.039062 C 68.730469 76.027344 69.203125 76.003906 69.113281 76.003906 C 70.113281 76.003906 70.882812 75.699219 71.816406 75.214844 C 72.75 74.730469 73.75 74.027344 74.683594 73.050781 C 76.550781 71.097656 78.105469 67.992188 77.929688 63.902344 C 77.847656 61.953125 76.761719 60.222656 75.164062 59.199219 C 73.929688 58.40625 72.011719 57.179688 69.507812 55.578125 C 66.605469 53.722656 62.890625 53.589844 59.859375 55.25 L 60.03125 55.164062 L 57.675781 56.175781 L 57.503906 56.296875 C 56.929688 56.699219 56.222656 56.773438 55.578125 56.503906 C 53.773438 55.75 50.960938 54.265625 48.347656 51.652344 C 45.734375 49.039062 44.25 46.226562 43.496094 44.421875 C 43.226562 43.777344 43.300781 43.070312 43.703125 42.496094 L 43.824219 42.324219 L 44.835938 39.96875 L 44.75 40.140625 C 46.410156 37.113281 46.28125 33.398438 44.421875 30.492188 C 42.820312 27.988281 41.59375 26.070312 40.800781 24.835938 C 39.777344 23.238281 38.046875 22.152344 36.097656 22.070312 Z M 35.925781 26.066406 C 36.488281 26.089844 37.066406 26.417969 37.433594 26.992188 C 38.226562 28.230469 39.457031 30.148438 41.054688 32.648438 C 42.117188 34.308594 42.191406 36.488281 41.242188 38.21875 L 41.195312 38.304688 L 40.230469 40.558594 L 40.429688 40.195312 C 39.246094 41.878906 39.011719 44.066406 39.804688 45.964844 C 40.707031 48.121094 42.429688 51.390625 45.519531 54.480469 C 48.609375 57.570312 51.878906 59.292969 54.035156 60.195312 C 55.933594 60.988281 58.121094 60.753906 59.804688 59.570312 L 59.441406 59.769531 L 61.695312 58.804688 L 61.78125 58.757812 C 63.511719 57.808594 65.691406 57.890625 67.351562 58.949219 L 67.351562 58.945312 C 69.851562 60.542969 71.769531 61.773438 73.007812 62.566406 C 73.582031 62.933594 73.910156 63.511719 73.933594 64.074219 C 74.066406 67.113281 73.011719 69.011719 71.792969 70.285156 C 71.183594 70.921875 70.523438 71.382812 69.980469 71.664062 C 69.4375 71.945312 68.914062 72.003906 69.113281 72.003906 C 68.746094 72.003906 68.554688 72.027344 68.09375 72.039062 C 67.632812 72.050781 67.019531 72.050781 66.257812 72.007812 C 64.738281 71.921875 62.636719 71.664062 60.109375 70.953125 C 55.054688 69.535156 48.273438 66.335938 40.96875 59.03125 C 33.664062 51.726562 30.464844 44.945312 29.046875 39.890625 C 28.339844 37.363281 28.078125 35.261719 27.992188 33.742188 C 27.949219 32.980469 27.949219 32.367188 27.960938 31.90625 C 27.972656 31.445312 27.996094 31.253906 27.996094 30.886719 C 27.996094 31.085938 28.054688 30.5625 28.335938 30.019531 C 28.617188 29.476562 29.078125 28.816406 29.714844 28.207031 C 30.988281 26.988281 32.886719 25.933594 35.925781 26.066406 Z M 35.925781 26.066406 "/>
</g>
</svg>
