<svg width="80" height="63" viewBox="0 0 80 63" fill="none" xmlns="http://www.w3.org/2000/svg">
<path d="M30 26.8125H40C41.0609 26.8125 42.0783 26.4832 42.8284 25.8972C43.5786 25.3111 44 24.5163 44 23.6875C44 22.8587 43.5786 22.0638 42.8284 21.4778C42.0783 20.8917 41.0609 20.5625 40 20.5625H36V19C36 18.1712 35.5786 17.3763 34.8284 16.7903C34.0783 16.2042 33.0609 15.875 32 15.875C30.9391 15.875 29.9217 16.2042 29.1716 16.7903C28.4214 17.3763 28 18.1712 28 19V20.7187C25.5697 21.1043 23.4094 22.1815 21.9386 23.7414C20.4678 25.3013 19.7914 27.2325 20.0406 29.1601C20.2898 31.0877 21.4469 32.8742 23.2873 34.1728C25.1277 35.4714 27.5201 36.1894 30 36.1875H34C34.5304 36.1875 35.0391 36.3521 35.4142 36.6451C35.7893 36.9381 36 37.3356 36 37.75C36 38.1644 35.7893 38.5618 35.4142 38.8548C35.0391 39.1479 34.5304 39.3125 34 39.3125H24C22.9391 39.3125 21.9217 39.6417 21.1716 40.2278C20.4214 40.8138 20 41.6087 20 42.4375C20 43.2663 20.4214 44.0611 21.1716 44.6472C21.9217 45.2332 22.9391 45.5625 24 45.5625H28V47.125C28 47.9538 28.4214 48.7486 29.1716 49.3347C29.9217 49.9207 30.9391 50.25 32 50.25C33.0609 50.25 34.0783 49.9207 34.8284 49.3347C35.5786 48.7486 36 47.9538 36 47.125V45.4062C38.4303 45.0207 40.5906 43.9434 42.0614 42.3835C43.5322 40.8236 44.2087 38.8924 43.9594 36.9648C43.7102 35.0372 42.5531 33.2507 40.7127 31.9521C38.8723 30.6535 36.4799 29.9355 34 29.9375H30C29.4696 29.9375 28.9609 29.7729 28.5858 29.4798C28.2107 29.1868 28 28.7894 28 28.375C28 27.9606 28.2107 27.5631 28.5858 27.2701C28.9609 26.9771 29.4696 26.8125 30 26.8125ZM76 31.5H64V3.37497C64.0028 2.82431 63.8193 2.28286 63.4681 1.80543C63.1169 1.328 62.6104 0.931546 62 0.65622C61.3919 0.381944 60.7021 0.237549 60 0.237549C59.2979 0.237549 58.6081 0.381944 58 0.65622L46 6.03122L34 0.65622C33.3919 0.381944 32.7021 0.237549 32 0.237549C31.2979 0.237549 30.6081 0.381944 30 0.65622L18 6.03122L6 0.65622C5.39192 0.381944 4.70215 0.237549 4 0.237549C3.29785 0.237549 2.60808 0.381944 2 0.65622C1.38958 0.931546 0.883127 1.328 0.531914 1.80543C0.180701 2.28286 -0.00279726 2.82431 1.01395e-06 3.37497V53.375C1.01395e-06 55.8614 1.26428 58.2459 3.51472 60.0041C5.76516 61.7623 8.8174 62.75 12 62.75H68C71.1826 62.75 74.2348 61.7623 76.4853 60.0041C78.7357 58.2459 80 55.8614 80 53.375V34.625C80 33.7962 79.5786 33.0013 78.8284 32.4153C78.0783 31.8292 77.0609 31.5 76 31.5ZM12 56.5C10.9391 56.5 9.92172 56.1707 9.17157 55.5847C8.42143 54.9986 8 54.2038 8 53.375V8.78122L16 12.3437C16.6174 12.5956 17.3035 12.7272 18 12.7272C18.6965 12.7272 19.3827 12.5956 20 12.3437L32 6.96872L44 12.3437C44.6174 12.5956 45.3035 12.7272 46 12.7272C46.6965 12.7272 47.3826 12.5956 48 12.3437L56 8.78122V53.375C56.0108 54.441 56.2543 55.4979 56.72 56.5H12ZM72 53.375C72 54.2038 71.5786 54.9986 70.8284 55.5847C70.0783 56.1707 69.0609 56.5 68 56.5C66.9391 56.5 65.9217 56.1707 65.1716 55.5847C64.4214 54.9986 64 54.2038 64 53.375V37.75H72V53.375Z" fill="#13CC03"/>
</svg>
