<svg width="89" height="84" viewBox="0 0 89 84" fill="none" xmlns="http://www.w3.org/2000/svg">
<path d="M78.9875 35.2799C77.9455 34.0992 76.6416 33.1487 75.1679 32.4956C73.6941 31.8424 72.0865 31.5025 70.4583 31.4999H53.5483L55.625 26.4949C56.4888 24.3035 56.7765 21.947 56.4633 19.6276C56.1502 17.3082 55.2456 15.0952 53.8272 13.1782C52.4087 11.2613 50.5187 9.6977 48.3194 8.62161C46.12 7.54553 43.6769 6.98905 41.1996 6.99991C40.4863 7.00132 39.7885 7.19688 39.1899 7.56314C38.5914 7.92941 38.1175 8.45084 37.825 9.06491L27.2563 31.4999H18.5417C15.5911 31.4999 12.7615 32.6062 10.6751 34.5753C8.58877 36.5444 7.41667 39.2151 7.41667 41.9999V66.4999C7.41667 69.2847 8.58877 71.9554 10.6751 73.9245C12.7615 75.8937 15.5911 76.9999 18.5417 76.9999H65.7488C68.3513 76.9991 70.8712 76.1371 72.87 74.564C74.8687 72.9909 76.2199 70.8061 76.6883 68.3899L81.3979 43.8899C81.6892 42.3757 81.6243 40.8196 81.2078 39.3318C80.7912 37.8439 80.0333 36.4607 78.9875 35.2799ZM25.9583 69.9999H18.5417C17.5582 69.9999 16.6149 69.6312 15.9195 68.9748C15.224 68.3184 14.8333 67.4282 14.8333 66.4999V41.9999C14.8333 41.0717 15.224 40.1814 15.9195 39.525C16.6149 38.8687 17.5582 38.4999 18.5417 38.4999H25.9583V69.9999ZM74.1667 42.6299L69.4571 67.1299C69.2991 67.9453 68.8397 68.6812 68.1606 69.2068C67.4815 69.7324 66.6268 70.0134 65.7488 69.9999H33.375V35.7349L43.4617 14.3149C44.5 14.6006 45.4642 15.0863 46.2936 15.7415C47.1229 16.3966 47.7994 17.2068 48.2803 18.1211C48.7611 19.0354 49.036 20.0339 49.0874 21.0535C49.1389 22.073 48.9658 23.0916 48.5792 24.0449L46.6138 29.0499C46.195 30.1078 46.0536 31.2456 46.2017 32.3663C46.3498 33.4869 46.7829 34.5571 47.4642 35.4855C48.1455 36.4139 49.0546 37.1729 50.1141 37.6978C51.1735 38.2228 52.3518 38.4979 53.5483 38.4999H70.4583C71.0031 38.4991 71.5414 38.6115 72.035 38.8293C72.5285 39.0471 72.9651 39.3648 73.3138 39.7599C73.671 40.1495 73.9327 40.6088 74.0801 41.1049C74.2275 41.601 74.2571 42.1218 74.1667 42.6299Z" fill="#0C41A7"/>
</svg>
