<svg width="79" height="76" viewBox="0 0 79 76" fill="none" xmlns="http://www.w3.org/2000/svg">
<path d="M39.875 6.33325C32.7054 6.33325 25.6969 8.19047 19.7356 11.67C13.7743 15.1496 9.12804 20.0953 6.38437 25.8816C3.64069 31.6679 2.92282 38.035 4.32153 44.1778C5.72025 50.3205 9.17273 55.963 14.2424 60.3916C19.312 64.8203 25.7712 67.8363 32.803 69.0581C39.8348 70.28 47.1235 69.6529 53.7473 67.2561C60.3711 64.8593 66.0326 60.8005 70.0158 55.593C73.999 50.3854 76.125 44.263 76.125 37.9999C76.125 33.8414 75.1874 29.7236 73.3656 25.8816C71.5439 22.0396 68.8737 18.5487 65.5076 15.6082C62.1415 12.6677 58.1453 10.3351 53.7473 8.74373C49.3492 7.15233 44.6354 6.33325 39.875 6.33325V6.33325ZM39.875 63.3333C34.1393 63.3333 28.5325 61.8475 23.7635 59.0638C18.9944 56.2802 15.2774 52.3236 13.0825 47.6946C10.8876 43.0655 10.3133 37.9718 11.4322 33.0576C12.5512 28.1434 15.3132 23.6295 19.3689 20.0865C23.4246 16.5436 28.5919 14.1309 34.2174 13.1534C39.8428 12.1759 45.6738 12.6776 50.9728 14.595C56.2719 16.5124 60.8011 19.7594 63.9876 23.9255C67.1742 28.0915 68.875 32.9895 68.875 37.9999C68.875 44.7187 65.8197 51.1624 60.3811 55.9133C54.9425 60.6642 47.5663 63.3333 39.875 63.3333V63.3333ZM39.875 18.9999C38.9136 18.9999 37.9916 19.3335 37.3117 19.9274C36.6319 20.5213 36.25 21.3267 36.25 22.1666V34.8333H29C28.0386 34.8333 27.1166 35.1669 26.4367 35.7607C25.7569 36.3546 25.375 37.1601 25.375 37.9999C25.375 38.8398 25.7569 39.6452 26.4367 40.2391C27.1166 40.833 28.0386 41.1666 29 41.1666H39.875C40.8364 41.1666 41.7584 40.833 42.4383 40.2391C43.1181 39.6452 43.5 38.8398 43.5 37.9999V22.1666C43.5 21.3267 43.1181 20.5213 42.4383 19.9274C41.7584 19.3335 40.8364 18.9999 39.875 18.9999Z" fill="#EE5D0C"/>
</svg>
